<svg xmlns="http://www.w3.org/2000/svg" xmlns:xlink="http://www.w3.org/1999/xlink" width="300" zoomAndPan="magnify" viewBox="0 0 224.87999 74.999997" height="100" preserveAspectRatio="xMidYMid meet" version="1.0"><defs><g/><clipPath id="id1"><path d="M 7.445312 29 L 57.789062 29 L 57.789062 62.6875 L 7.445312 62.6875 Z M 7.445312 29 " clip-rule="nonzero"/></clipPath><clipPath id="id2"><path d="M 7.445312 12.339844 L 57.789062 12.339844 L 57.789062 46 L 7.445312 46 Z M 7.445312 12.339844 " clip-rule="nonzero"/></clipPath></defs><g clip-path="url(#id1)"><path fill="#2d7061" d="M 48.53125 53.511719 C 49.683594 50.167969 49.1875 46.554688 47.21875 43.648438 L 57.84375 45.019531 L 45.246094 37.292969 L 32.644531 29.570312 L 38.175781 50.222656 L 39.65625 42.71875 C 49.628906 56.46875 20.757812 67.042969 8.15625 40.035156 C 9.414062 52.46875 19.878906 62.167969 32.644531 62.167969 C 35.765625 62.167969 38.726562 61.617188 41.410156 60.578125 C 42.066406 60.359375 42.671875 60.085938 43.273438 59.757812 C 45.738281 58.441406 47.601562 56.25 48.53125 53.566406 Z M 8.046875 38.0625 C 9.855469 41.074219 11.660156 43.59375 13.523438 45.785156 C 19.496094 52.6875 25.796875 55.261719 32.316406 53.457031 C 23.714844 54.222656 15.660156 48.195312 8.101562 35.375 C 8.046875 36.089844 7.992188 36.800781 7.992188 37.511719 C 7.992188 37.679688 7.992188 37.84375 7.992188 38.0625 Z M 8.046875 38.0625 " fill-opacity="1" fill-rule="evenodd"/></g><g clip-path="url(#id2)"><path fill="#1d4355" d="M 16.757812 21.515625 C 15.605469 24.859375 16.097656 28.472656 18.070312 31.378906 L 7.445312 30.007812 L 20.042969 37.734375 L 32.644531 45.457031 L 27.109375 24.804688 L 25.632812 32.308594 C 15.660156 18.558594 44.53125 7.984375 57.132812 34.992188 C 55.875 22.558594 45.410156 12.859375 32.644531 12.859375 C 29.523438 12.859375 26.5625 13.410156 23.878906 14.449219 C 23.222656 14.667969 22.617188 14.941406 22.015625 15.269531 C 19.550781 16.585938 17.6875 18.777344 16.757812 21.460938 Z M 57.242188 36.964844 C 49.628906 24.363281 41.519531 19.214844 32.972656 21.570312 C 41.574219 20.804688 49.628906 26.832031 57.1875 39.648438 C 57.242188 38.9375 57.296875 38.226562 57.296875 37.511719 C 57.296875 37.347656 57.296875 37.183594 57.296875 36.964844 Z M 57.242188 36.964844 " fill-opacity="1" fill-rule="evenodd"/></g><g fill="#1d4355" fill-opacity="1"><g transform="translate(66.949842, 45.052039)"><g><path d="M 8.832031 0.347656 C 13.425781 0.347656 17.238281 -1.609375 17.238281 -5.558594 C 17.238281 -9.101562 14.527344 -10.605469 9.691406 -11.4375 C 7.007812 -11.949219 6.121094 -12.296875 6.121094 -13.480469 C 6.121094 -14.929688 7.410156 -15.25 9.238281 -15.25 C 11.144531 -15.25 13.15625 -14.792969 15.519531 -13.800781 L 16.082031 -17.722656 C 13.960938 -18.6875 11.625 -19.117188 9.238281 -19.117188 C 4.96875 -19.117188 1.207031 -17.15625 1.207031 -13.289062 C 1.207031 -9.828125 3.757812 -8.539062 8.511719 -7.734375 C 11.0625 -7.222656 12.351562 -6.925781 12.351562 -5.371094 C 12.351562 -3.839844 10.738281 -3.542969 8.832031 -3.542969 C 6.632812 -3.542969 3.355469 -4.1875 1.34375 -5.234375 L 0.964844 -1.316406 C 3.113281 -0.1875 5.933594 0.347656 8.832031 0.347656 Z M 8.832031 0.347656 "/></g></g></g><g fill="#1d4355" fill-opacity="1"><g transform="translate(85.502586, 45.052039)"><g><path d="M 9.664062 -3.515625 C 7.597656 -3.515625 5.933594 -4 5.933594 -5.558594 C 5.933594 -7.089844 7.195312 -8 9.53125 -8 L 13.53125 -8 L 13.53125 -11.359375 L 9.746094 -11.359375 C 7.382812 -11.359375 6.148438 -11.761719 6.148438 -13.265625 C 6.148438 -14.632812 7.785156 -15.277344 9.773438 -15.277344 C 11.519531 -15.277344 13.585938 -14.792969 14.929688 -13.988281 L 16.726562 -17.425781 C 14.578125 -18.527344 11.921875 -19.117188 9.398438 -19.117188 C 5.046875 -19.117188 1.128906 -17.425781 1.128906 -13.855469 C 1.128906 -11.597656 2.308594 -10.121094 4.726562 -9.613281 C 2.203125 -9.046875 0.914062 -7.222656 0.914062 -5.074219 C 0.914062 -1.421875 4.96875 0.347656 9.398438 0.347656 C 11.976562 0.347656 14.660156 -0.242188 16.726562 -1.449219 L 14.929688 -4.78125 C 13.613281 -4 11.4375 -3.515625 9.664062 -3.515625 Z M 9.664062 -3.515625 "/></g></g></g><g fill="#1d4355" fill-opacity="1"><g transform="translate(103.545201, 45.052039)"><g><path d="M 23.011719 -7.972656 C 23.011719 -5.503906 21.75 -4.269531 19.949219 -4.269531 C 18.175781 -4.269531 16.914062 -5.558594 16.914062 -8 L 16.914062 -18.796875 L 12.296875 -18.796875 L 12.296875 -7.972656 C 12.296875 -5.503906 11.035156 -4.269531 9.261719 -4.269531 C 7.492188 -4.269531 6.203125 -5.503906 6.203125 -7.972656 L 6.203125 -18.796875 L 1.585938 -18.796875 L 1.585938 -8.054688 C 1.585938 -3.007812 4.671875 0.320312 9.023438 0.320312 C 11.410156 0.320312 13.398438 -0.5625 14.792969 -2.230469 C 16.109375 -0.5625 18.015625 0.320312 20.21875 0.320312 C 24.59375 0.320312 27.628906 -3.007812 27.628906 -8.054688 L 27.628906 -18.796875 L 23.011719 -18.796875 Z M 23.011719 -7.972656 "/></g></g></g><g fill="#1d4355" fill-opacity="1"><g transform="translate(133.3477, 45.052039)"><g><path d="M 6.230469 0 L 6.230469 -4.726562 L 14.417969 -4.726562 L 14.417969 0 L 18.984375 0 L 18.984375 -10.738281 C 18.984375 -15.839844 15.410156 -19.144531 10.285156 -19.144531 C 5.15625 -19.144531 1.585938 -15.839844 1.585938 -10.738281 L 1.585938 0 Z M 6.230469 -10.738281 C 6.230469 -13.503906 7.894531 -15.144531 10.285156 -15.144531 C 12.699219 -15.144531 14.417969 -13.503906 14.417969 -10.738281 L 14.417969 -8.402344 L 6.230469 -8.402344 Z M 6.230469 -10.738281 "/></g></g></g><g fill="#1d4355" fill-opacity="1"><g transform="translate(154.5048, 45.052039)"><g><path d="M 11.410156 -9.558594 L 19.386719 -18.820312 L 13.746094 -18.820312 L 6.6875 -10.5 L 6.6875 -18.796875 L 2.039062 -18.796875 L 2.066406 0 L 6.6875 0 L 6.6875 -8.511719 L 13.960938 -0.0273438 L 19.574219 -0.0273438 Z M 11.410156 -9.558594 "/></g></g></g><g fill="#1d4355" fill-opacity="1"><g transform="translate(175.071221, 45.052039)"><g><path d="M 10.257812 0.320312 C 15.625 0.320312 18.957031 -2.871094 18.957031 -8 L 18.957031 -18.796875 L 14.363281 -18.796875 L 14.363281 -8 C 14.363281 -5.128906 12.835938 -3.570312 10.257812 -3.570312 C 7.734375 -3.570312 6.230469 -5.128906 6.230469 -8 L 6.230469 -18.796875 L 1.585938 -18.796875 L 1.585938 -8 C 1.585938 -2.871094 4.96875 0.320312 10.257812 0.320312 Z M 10.257812 0.320312 "/></g></g></g><g fill="#1d4355" fill-opacity="1"><g transform="translate(196.20148, 45.052039)"><g><path d="M 10.257812 -19.117188 C 4.96875 -19.117188 1.585938 -15.921875 1.585938 -10.792969 L 1.585938 0 L 6.230469 0 L 6.230469 -10.363281 C 6.230469 -13.238281 7.734375 -14.792969 10.257812 -14.792969 C 12.835938 -14.792969 14.363281 -13.238281 14.363281 -10.363281 L 14.363281 0 L 18.957031 0 L 18.957031 -10.792969 C 18.957031 -15.921875 15.625 -19.117188 10.257812 -19.117188 Z M 10.257812 -19.117188 "/></g></g></g></svg>